<svg xmlns="http://www.w3.org/2000/svg" xmlns:xlink="http://www.w3.org/1999/xlink" width="44" height="38" viewBox="0 0 44 38">
  <defs>
    <clipPath id="clip-Icono_de_biblioteca_2">
      <rect width="44" height="38"/>
    </clipPath>
  </defs>
  <g id="Icono_de_biblioteca_2" data-name="Icono de biblioteca – 2" clip-path="url(#clip-Icono_de_biblioteca_2)">
    <path id="Icon_awesome-chalkboard-teacher" data-name="Icon awesome-chalkboard-teacher" d="M14.625,24.75a1.609,1.609,0,0,0-.5.077,9.275,9.275,0,0,1-2.879.486,9.283,9.283,0,0,1-2.879-.486,1.6,1.6,0,0,0-.5-.077A7.876,7.876,0,0,0,0,32.669,3.366,3.366,0,0,0,3.375,36h15.75A3.366,3.366,0,0,0,22.5,32.669,7.876,7.876,0,0,0,14.625,24.75ZM11.25,22.5A6.75,6.75,0,1,0,4.5,15.75,6.75,6.75,0,0,0,11.25,22.5ZM41.625,0h-27A3.436,3.436,0,0,0,11.25,3.487V6.75A8.9,8.9,0,0,1,15.75,8V4.5H40.5V24.75H36v-4.5H27v4.5H21.639a8.961,8.961,0,0,1,2.791,4.5H41.625A3.436,3.436,0,0,0,45,25.763V3.487A3.436,3.436,0,0,0,41.625,0Z" transform="translate(-1 1)"/>
  </g>
</svg>
