<svg xmlns="http://www.w3.org/2000/svg" xmlns:xlink="http://www.w3.org/1999/xlink" width="27" height="27" viewBox="0 0 27 27">
  <defs>
    <clipPath id="clip-Icono_de_biblioteca_9">
      <rect width="27" height="27"/>
    </clipPath>
  </defs>
  <g id="Icono_de_biblioteca_9" data-name="Icono_de_biblioteca___9" clip-path="url(#clip-Icono_de_biblioteca_9)">
    <path id="Icon_awesome-facebook-square" data-name="Icon awesome-facebook-square" d="M23.9,2.25H2.869A2.811,2.811,0,0,0,0,5V25.167a2.811,2.811,0,0,0,2.869,2.75h8.2V19.191H7.306V15.083h3.765v-3.13c0-3.561,2.211-5.528,5.6-5.528a23.764,23.764,0,0,1,3.318.277V10.2H18.118A2.1,2.1,0,0,0,15.7,12.417v2.667h4.11l-.657,4.107H15.7v8.726h8.2a2.811,2.811,0,0,0,2.869-2.75V5A2.811,2.811,0,0,0,23.9,2.25Z" transform="translate(0 -1.251)" fill="#233775"/>
  </g>
</svg>
