<svg xmlns="http://www.w3.org/2000/svg" xmlns:xlink="http://www.w3.org/1999/xlink" width="30" height="40" viewBox="0 0 30 40">
  <defs>
    <clipPath id="clip-Icono_de_biblioteca_21">
      <rect width="30" height="40"/>
    </clipPath>
  </defs>
  <g id="Icono_de_biblioteca_21" data-name="Icono de biblioteca – 21" clip-path="url(#clip-Icono_de_biblioteca_21)">
    <path id="Icon_awesome-file-pdf" data-name="Icon awesome-file-pdf" d="M14.011,19.727c-.385-1.232-.377-3.613-.154-3.613C14.5,16.114,14.443,18.957,14.011,19.727Zm-.131,3.636a35.542,35.542,0,0,1-2.188,4.83,28.364,28.364,0,0,1,4.845-1.687A9.978,9.978,0,0,1,13.88,23.362ZM6.632,32.976c0,.062,1.017-.416,2.688-3.1C8.8,30.364,7.079,31.766,6.632,32.976ZM19.1,12.324H29.579V37.589a1.844,1.844,0,0,1-1.849,1.849H1.849A1.844,1.844,0,0,1,0,37.589V1.849A1.844,1.844,0,0,1,1.849,0H17.254V10.476A1.854,1.854,0,0,0,19.1,12.324Zm-.616,13.233A7.731,7.731,0,0,1,15.2,21.414c.347-1.425.894-3.589.478-4.945a1.929,1.929,0,0,0-3.682-.524c-.385,1.41-.031,3.4.624,5.931a72.331,72.331,0,0,1-3.143,6.609c-.008,0-.008.008-.015.008-2.087,1.071-5.669,3.428-4.2,5.238a2.393,2.393,0,0,0,1.656.77c1.379,0,2.75-1.386,4.706-4.76a43.907,43.907,0,0,1,6.085-1.787,11.673,11.673,0,0,0,4.93,1.5,1.994,1.994,0,0,0,1.517-3.343c-1.071-1.048-4.183-.747-5.669-.555ZM29.039,8.088,21.491.539A1.847,1.847,0,0,0,20.181,0h-.462V9.86h9.86V9.39A1.843,1.843,0,0,0,29.039,8.088ZM23.332,27.753c.316-.208-.193-.917-3.3-.693C22.893,28.277,23.332,27.753,23.332,27.753Z" fill="#fff"/>
  </g>
</svg>
