<svg xmlns="http://www.w3.org/2000/svg" xmlns:xlink="http://www.w3.org/1999/xlink" width="65" height="39" viewBox="0 0 65 39">
  <defs>
    <clipPath id="clip-Icono_de_biblioteca_3">
      <rect width="65" height="39"/>
    </clipPath>
  </defs>
  <g id="Icono_de_biblioteca_3" data-name="Icono_de_biblioteca___3" clip-path="url(#clip-Icono_de_biblioteca_3)">
    <path id="Icon_metro-books" data-name="Icon metro-books" d="M15.656,8.571H4.441a1.76,1.76,0,0,0-1.869,1.612v35.47a1.76,1.76,0,0,0,1.869,1.612H15.656a1.76,1.76,0,0,0,1.869-1.612V10.184a1.76,1.76,0,0,0-1.869-1.612Zm-1.869,9.674H6.31V15.02h7.477ZM34.349,8.571H23.133a1.76,1.76,0,0,0-1.869,1.612v35.47a1.76,1.76,0,0,0,1.869,1.612H34.349a1.76,1.76,0,0,0,1.869-1.612V10.184a1.76,1.76,0,0,0-1.869-1.612ZM32.48,18.245H25V15.02H32.48Zm14.784-7.181L37.248,15.417a1.52,1.52,0,0,0-.828,2.165l16.822,28.8a2.025,2.025,0,0,0,2.51.714l10.016-4.353a1.52,1.52,0,0,0,.828-2.165l-16.822-28.8a2.025,2.025,0,0,0-2.51-.714ZM56.78,45.653a1.89,1.89,0,1,1-1.869-1.612A1.755,1.755,0,0,1,56.78,45.653Z" transform="translate(-2.239 -8.014)" fill="#fff"/>
  </g>
</svg>
