<svg xmlns="http://www.w3.org/2000/svg" xmlns:xlink="http://www.w3.org/1999/xlink" width="29" height="27" viewBox="0 0 29 27">
  <defs>
    <clipPath id="clip-Icono_de_biblioteca_11">
      <rect width="29" height="27"/>
    </clipPath>
  </defs>
  <g id="Icono_de_biblioteca_11" data-name="Icono_de_biblioteca___11" clip-path="url(#clip-Icono_de_biblioteca_11)">
    <path id="Icon_awesome-twitter" data-name="Icon awesome-twitter" d="M27.453,9.3c.019.26.019.519.019.779A17.312,17.312,0,0,1,9.63,27.126,18.327,18.327,0,0,1,0,24.436a13.572,13.572,0,0,0,1.514.074A12.936,12.936,0,0,0,9.3,21.95a6.254,6.254,0,0,1-5.863-4.155,8.269,8.269,0,0,0,1.184.093,6.924,6.924,0,0,0,1.65-.2A6.068,6.068,0,0,1,1.243,11.8v-.074a6.54,6.54,0,0,0,2.835.761,5.923,5.923,0,0,1-2.8-4.99,5.746,5.746,0,0,1,.854-3.024,18.113,18.113,0,0,0,12.93,6.27,6.475,6.475,0,0,1-.155-1.373,6.133,6.133,0,0,1,6.271-5.992,6.4,6.4,0,0,1,4.582,1.892,12.7,12.7,0,0,0,3.98-1.447,6.034,6.034,0,0,1-2.757,3.3A13.036,13.036,0,0,0,30.6,6.2a13.17,13.17,0,0,1-3.145,3.1Z" transform="translate(-0.542 -1.637)" fill="#233775"/>
  </g>
</svg>
