<svg xmlns="http://www.w3.org/2000/svg" xmlns:xlink="http://www.w3.org/1999/xlink" width="14" height="15" viewBox="0 0 14 15">
  <defs>
    <clipPath id="clip-Icono_de_biblioteca_18">
      <rect width="14" height="15"/>
    </clipPath>
  </defs>
  <g id="Icono_de_biblioteca_18" data-name="Icono_de_biblioteca___18" clip-path="url(#clip-Icono_de_biblioteca_18)">
    <path id="Icon_feather-phone" data-name="Icon feather-phone" d="M15.737,12.429v1.9a1.264,1.264,0,0,1-1.378,1.264A12.507,12.507,0,0,1,8.9,13.649,12.324,12.324,0,0,1,5.113,9.857a12.507,12.507,0,0,1-1.94-5.479A1.264,1.264,0,0,1,4.431,3h1.9A1.264,1.264,0,0,1,7.59,4.087a8.115,8.115,0,0,0,.442,1.776A1.264,1.264,0,0,1,7.748,7.2l-.8.8a10.112,10.112,0,0,0,3.792,3.792l.8-.8a1.264,1.264,0,0,1,1.333-.284,8.115,8.115,0,0,0,1.776.442A1.264,1.264,0,0,1,15.737,12.429Z" transform="translate(-2.668 -1.5)" fill="#233775" stroke="#233775" stroke-linecap="round" stroke-linejoin="round" stroke-width="1"/>
  </g>
</svg>
